<svg width="56" height="50" viewBox="0 0 56 50" fill="none" xmlns="http://www.w3.org/2000/svg">
<g clip-path="url(#clip0_126_2)">
<path d="M18.5564 9.15063L36.8577 9.15063L46.0083 25L36.8577 40.8494L18.5564 40.8494L9.40576 25L18.5564 9.15063Z" fill="#151B1F" stroke="#FFC300" stroke-width="16.0136"/>
<path d="M18.5564 9.15063L36.8577 9.15063L46.0083 25L36.8577 40.8494L18.5564 40.8494L9.40576 25L18.5564 9.15063Z" fill="#151B1F" stroke="#FF793C" stroke-width="11.4383"/>
<path d="M18.5564 9.15063L36.8577 9.15063L46.0083 25L36.8577 40.8494L18.5564 40.8494L9.40576 25L18.5564 9.15063Z" fill="#151B1F" stroke="#EB3264" stroke-width="6.86298"/>
<path d="M18.5564 9.15063L36.8577 9.15063L46.0083 25L36.8577 40.8494L18.5564 40.8494L9.40576 25L18.5564 9.15063Z" fill="#151B1F" stroke="#36454F" stroke-width="2.28766"/>
<path d="M18.5565 40.8493L36.8577 40.8493L41.4339 32.9246L36.8577 24.9999L18.5565 24.9999L13.982 32.9246L18.5565 40.8493Z" stroke="#36454F" stroke-width="2.28766"/>
<path d="M36.8577 9.15069L18.5565 9.1507L13.982 17.0754L18.5565 25.0001L36.8577 25.0001L41.4339 17.0754L36.8577 9.15069Z" stroke="#36454F" stroke-width="2.28766"/>
</g>
<defs>
<clipPath id="clip0_126_2">
<rect width="56" height="50" fill="white"/>
</clipPath>
</defs>
</svg>
